<svg id="Layer_2" data-name="Layer 2" xmlns="http://www.w3.org/2000/svg" viewBox="0 0 350.45 350.45"><defs><style>.cls-1{fill:#b10d1e;}</style></defs><title>alert1</title><path class="cls-1" d="M265.72,75.67A175.23,175.23,0,1,0,440.94,250.89,175.22,175.22,0,0,0,265.72,75.67ZM245.67,178.33a19.72,19.72,0,0,1,19.66-19.66h0A19.72,19.72,0,0,1,285,178.33v84A19.73,19.73,0,0,1,265.33,282h0a19.72,19.72,0,0,1-19.66-19.67Zm19.66,172a25,25,0,1,1,25-25A25,25,0,0,1,265.33,350.33Z" transform="translate(-90.49 -75.67)"/></svg>
