<svg id="Layer_2" data-name="Layer 2" xmlns="http://www.w3.org/2000/svg" viewBox="0 0 487.35 346.8"><defs><style>.cls-1{fill:#eee;}</style></defs><title>signature-noLine1</title><path class="cls-1" d="M80.94,426c-.63,0-1.26,0-1.91-.06-11.46-.74-31.88-7.52-39.82-44.58A161,161,0,0,1,36,346.52l30,1L51,347l15,.46c-.56,19.12,4.44,45.89,13.89,48.39,1-1,3.07-3.85,5.87-10.73,3.11-7.66,5.93-17.32,8.92-27.56,4.56-15.65,9.27-31.82,16.15-44.78,9.85-18.54,22.93-27.53,38.91-26.76,7.15.35,20,3.7,26,22.27,2.74,8.57,3.63,18.8,4.56,29.62,2.64,30.42,6,43.27,19.68,44.12,5.34.33,17.22-4.5,34.45-19a255.48,255.48,0,0,0,18.86-17.79c-13.15-31.64-22.73-70.4-26.45-108.16-5.4-54.87,2.54-100,22.36-127,13.06-17.8,38-37.24,82.65-28.8,21.06,4,36.94,14.63,45.93,30.8,7.81,14,10.41,32,7.74,53.44-5.48,43.94-33.62,103.28-75.28,158.75-5.27,7-12.64,16.43-21.35,26.48.42.81.83,1.61,1.26,2.4,13.12,24.5,24,30.89,28.06,30.89h.17c23.18-1.06,32.22-22.25,43.35-54.47C370,305.36,379.5,278,405.38,278l1,0c10.56.29,25.25,4.72,35.25,24.14,5.7,11.09,8.93,25,12.05,38.36,4.25,18.25,9.06,38.91,19.32,45.23,2.24-1.14,9.37-6.73,23.73-34.06l26.55,13.95c-13.68,26.06-26.15,44.39-42.48,49.15A28.1,28.1,0,0,1,458.56,412c-21.9-12.51-28.36-40.24-34.06-64.71-5.49-23.58-9.77-39.06-18.92-39.32h0c-4.67,0-11.72,20.39-15.51,31.36-5.22,15.1-11.14,32.23-20.9,46.24C356.65,403.51,340,413.06,319.68,414c-18.72.86-36.32-12.68-52.44-40.25C245.35,395,219.94,413.32,198.08,412c-13-.8-30.43-6.49-39.76-29.05-5.42-13.11-6.77-28.68-8-42.42-.62-7.05-1.7-19.55-3.65-24.34-9.47,2.57-18,31.9-23.24,49.8-4,13.76-7.81,26.77-12.9,37.12C103.07,418.32,93.11,426,80.94,426Zm230.31-316.8c-16.32,0-28.8,6.14-37.92,18.58-27.34,37.26-21.2,126.36,2.24,192q5.35-6.6,10.62-13.61c38.08-50.71,64.71-106.06,69.5-144.45,4.92-39.38-13.17-48-29.48-51A81,81,0,0,0,311.25,109.23Z" transform="translate(-35.97 -79.23)"/></svg>